# Blender v2.93.1 OBJ File: 'Camp.blend'
# www.blender.org
mtllib Camp.mtl
o Cube.003_Cube.006
v 9.240748 3.216549 2.687280
v 9.240748 3.441649 2.687280
v 9.240748 3.216549 2.462179
v 9.240748 3.441649 2.462179
v 9.465848 3.216549 2.687280
v 9.465848 3.441649 2.687280
v 9.465848 3.216549 2.462179
v 9.465848 3.441649 2.462179
v 9.110422 6.364238 -0.297884
v 14.878999 6.364238 -0.297884
v 9.110422 6.364238 -0.783818
v 14.878999 6.364238 -0.783818
v 9.110422 4.988997 -2.038891
v 14.878999 4.988997 -2.038891
v 9.110422 4.988997 -2.038891
v 14.878999 4.988997 -2.038891
v 9.110422 5.807911 -0.174256
v 14.878999 5.807911 -0.174256
v 9.110422 5.344306 0.188901
v 14.878999 5.344306 0.188901
v 9.110422 4.587083 0.946124
v 14.878999 4.587083 0.946124
v 9.110422 3.860768 1.873335
v 14.878999 3.860768 1.873335
v 9.110422 5.854272 -0.876539
v 14.878999 5.854272 -0.876539
v 9.110422 5.259311 -1.301511
v 14.878999 5.259311 -1.301511
v 9.110422 5.259311 -1.301511
v 14.878999 5.259311 -1.301511
v 9.110422 5.259311 -1.301511
v 14.878999 5.259311 -1.301511
v 9.110422 4.422246 -2.068821
v 14.878999 4.422246 -2.068821
v 9.110422 3.891031 -2.766376
v 14.878999 3.891031 -2.766376
v 9.110422 3.891031 -2.766376
v 14.878999 3.891031 -2.766376
v 14.762873 5.334453 0.138505
v 14.762873 4.429276 0.775436
v 14.878999 4.587083 0.946124
v 14.878999 3.860768 1.873335
v 14.878999 4.587083 0.946124
v 14.878999 3.860768 1.873335
v 14.762873 4.429677 0.775154
v 14.762873 3.412148 1.491141
v 8.889288 3.213964 1.586376
v 8.889288 3.313964 1.586376
v 8.889288 3.213964 -2.751178
v 8.889288 3.313964 -2.751178
v 14.890821 3.213964 1.586376
v 14.890821 3.313964 1.586376
v 14.890821 3.213964 -2.751178
v 14.890821 3.313964 -2.751178
v 14.626751 3.285085 -0.618977
v 14.626751 6.599744 -0.618977
v 14.719877 3.285085 -0.572977
v 14.719877 6.599744 -0.572977
v 14.742878 3.285085 -0.469615
v 14.742878 6.599744 -0.469615
v 14.678432 3.285085 -0.386725
v 14.678432 6.599744 -0.386725
v 14.575071 3.285085 -0.386725
v 14.575071 6.599744 -0.386725
v 14.510626 3.285085 -0.469615
v 14.510626 6.599744 -0.469615
v 14.533627 3.285085 -0.572977
v 14.533627 6.599744 -0.572977
v 9.152871 3.285085 -0.683882
v 9.152871 6.633533 -0.683882
v 9.245996 3.285085 -0.637882
v 9.245996 6.633533 -0.637882
v 9.268997 3.285085 -0.534519
v 9.268997 6.633533 -0.534519
v 9.204552 3.285085 -0.451630
v 9.204552 6.633533 -0.451630
v 9.101191 3.285085 -0.451630
v 9.101191 6.633533 -0.451630
v 9.036745 3.285085 -0.534519
v 9.036745 6.633533 -0.534519
v 9.059746 3.285085 -0.637882
v 9.059746 6.633533 -0.637882
v 14.774488 3.242703 2.597590
v 14.698897 5.576246 -0.429779
v 14.756479 3.272138 2.620729
v 14.680888 5.605681 -0.406640
v 14.715240 3.279266 2.627253
v 14.639648 5.612809 -0.400116
v 14.681826 3.258720 2.612250
v 14.606234 5.592263 -0.415119
v 14.681396 3.225971 2.587017
v 14.605805 5.559514 -0.440352
v 14.714277 3.205680 2.570556
v 14.638685 5.539223 -0.456813
v 14.755707 3.213126 2.575261
v 14.680115 5.546669 -0.452108
v 9.110423 5.955982 -0.618977
v 14.943445 5.955982 -0.618977
v 9.110423 5.862856 -0.572977
v 14.943445 5.862856 -0.572977
v 9.110423 5.839856 -0.469615
v 14.943445 5.839856 -0.469615
v 9.110423 5.904301 -0.386725
v 14.943445 5.904301 -0.386725
v 9.110423 6.007663 -0.386725
v 14.943445 6.007663 -0.386725
v 9.110423 6.072107 -0.469615
v 14.943445 6.072108 -0.469615
v 9.110423 6.049108 -0.572977
v 14.943445 6.049108 -0.572977
v 8.994296 3.287059 1.579160
v 14.762873 3.287059 1.579160
v 8.994296 6.343651 -0.571621
v 14.762873 6.343651 -0.571621
v 8.994296 3.279040 1.567764
v 14.762873 3.279040 1.567764
v 8.994296 6.335632 -0.583017
v 14.762873 6.335632 -0.583017
v 14.762873 3.271313 0.632826
v 14.762873 5.076170 -0.459389
v 14.762873 5.041445 0.327642
v 14.762873 4.681170 -0.130899
v 14.762873 4.434359 0.754820
v 14.762873 4.105177 0.169553
v 14.762873 3.999451 1.060845
v 14.762873 4.006166 1.073159
v 14.762873 3.681915 0.452801
v 8.994296 6.297678 -0.563417
v 14.762873 6.297678 -0.563417
v 8.994296 3.241088 -2.714200
v 14.762873 3.241088 -2.714200
v 8.994296 6.273621 -0.529227
v 14.762873 6.273621 -0.529227
v 8.994296 3.217030 -2.680011
v 14.762873 3.217030 -2.680011
v 14.762873 5.204752 -0.406887
v 14.762873 3.236347 -1.875140
v 14.762873 4.149582 -1.226144
v 14.762873 4.489003 -1.784981
v 14.762873 4.567559 -0.933476
v 14.762873 4.957536 -1.455296
v 14.762873 3.561456 -1.559168
v 14.762873 3.978201 -2.144410
v 14.723042 3.242705 -3.515500
v 14.750361 5.576245 -0.487309
v 14.705029 3.213127 -3.492545
v 14.732349 5.546668 -0.464354
v 14.663783 3.205681 -3.486434
v 14.691103 5.539221 -0.458244
v 14.630362 3.225972 -3.501769
v 14.657682 5.559512 -0.473578
v 14.629933 3.258721 -3.527002
v 14.657253 5.592261 -0.498811
v 14.662819 3.279267 -3.543132
v 14.690140 5.612808 -0.514941
v 14.704256 3.272140 -3.538013
v 14.731577 5.605680 -0.509822
v 9.366993 3.242703 2.445371
v 9.291401 5.576246 -0.581998
v 9.348983 3.272138 2.468510
v 9.273392 5.605681 -0.558859
v 9.307744 3.279266 2.475034
v 9.232153 5.612809 -0.552335
v 9.274329 3.258720 2.460031
v 9.198738 5.592263 -0.567338
v 9.273901 3.225971 2.434798
v 9.198309 5.559514 -0.592571
v 9.306781 3.205680 2.418336
v 9.231190 5.539223 -0.609033
v 9.348211 3.213126 2.423042
v 9.272619 5.546669 -0.604327
v 9.315545 3.242705 -3.515500
v 9.342865 5.576245 -0.487309
v 9.297532 3.213127 -3.492545
v 9.324853 5.546668 -0.464354
v 9.256287 3.205681 -3.486434
v 9.283607 5.539221 -0.458244
v 9.222866 3.225972 -3.501769
v 9.250186 5.559512 -0.473578
v 9.222437 3.258721 -3.527002
v 9.249758 5.592261 -0.498811
v 9.255323 3.279267 -3.543132
v 9.282643 5.612808 -0.514941
v 9.296760 3.272140 -3.538013
v 9.324080 5.605680 -0.509822
v 9.030291 3.308701 1.561484
v 9.030291 6.365293 -0.589297
v 9.030291 3.300974 0.626546
v 9.030291 5.105831 -0.465669
v 9.030291 5.071105 0.321362
v 9.030291 4.710831 -0.137179
v 9.030291 4.464019 0.748540
v 9.030291 4.134838 0.163273
v 9.030291 4.029111 1.054564
v 9.030291 3.711576 0.446521
v 9.030291 6.303283 -0.535507
v 9.030291 3.246692 -2.686291
v 9.030291 5.234414 -0.413167
v 9.030291 3.266009 -1.881420
v 9.030291 4.179244 -1.232424
v 9.030291 4.518665 -1.791261
v 9.030291 4.597221 -0.939756
v 9.030291 4.987198 -1.461576
v 9.030291 3.591118 -1.565448
v 9.030291 4.007863 -2.150689
v 14.526107 3.216549 -3.462113
v 14.526107 3.441649 -3.462113
v 14.526107 3.216549 -3.687213
v 14.526107 3.441649 -3.687213
v 14.751207 3.216549 -3.462113
v 14.751207 3.441649 -3.462113
v 14.751207 3.216549 -3.687213
v 14.751207 3.441649 -3.687213
v 9.154264 3.216549 -3.395382
v 9.154264 3.441649 -3.395382
v 9.154264 3.216549 -3.620482
v 9.154264 3.441649 -3.620482
v 9.379365 3.216549 -3.395382
v 9.379365 3.441649 -3.395382
v 9.379365 3.216549 -3.620482
v 9.379365 3.441649 -3.620482
v 14.613878 3.227623 2.637300
v 14.613878 3.452723 2.637300
v 14.613878 3.227623 2.412200
v 14.613878 3.452723 2.412200
v 14.838979 3.227623 2.637300
v 14.838979 3.452723 2.637300
v 14.838979 3.227623 2.412200
v 14.838979 3.452723 2.412200
v 9.115891 5.337473 0.188212
v 9.115891 4.580251 0.945435
v 8.999765 5.327621 0.137815
v 8.999765 4.422443 0.774747
v 9.115891 4.580251 0.945435
v 9.115891 3.853935 1.872646
v 8.999765 4.422844 0.774464
v 8.999765 3.405316 1.490451
v 9.229630 4.487752 -1.611208
v 9.229630 3.528913 -2.295228
v 9.110422 4.850225 -1.676507
v 9.113503 3.890612 -2.760530
v 9.228455 4.058001 -1.853655
v 9.110422 4.420179 -2.071534
v 14.762875 5.158439 -1.365047
v 14.762873 3.361998 -2.629121
v 14.878998 4.422246 -2.068821
v 14.878999 3.891031 -2.766376
v 14.762873 4.645162 -1.726217
v 14.878998 4.318289 -2.205330
vt 0.375000 0.000000
vt 0.625000 0.000000
vt 0.625000 0.250000
vt 0.375000 0.250000
vt 0.625000 0.500000
vt 0.375000 0.500000
vt 0.625000 0.750000
vt 0.375000 0.750000
vt 0.625000 1.000000
vt 0.375000 1.000000
vt 0.125000 0.500000
vt 0.125000 0.750000
vt 0.875000 0.500000
vt 0.875000 0.750000
vt 0.375000 0.000000
vt 0.625000 0.000000
vt 0.625000 0.250000
vt 0.375000 0.250000
vt 0.625000 0.500000
vt 0.375000 0.500000
vt 0.625000 0.750000
vt 0.375000 0.750000
vt 0.625000 1.000000
vt 0.375000 1.000000
vt 0.125000 0.500000
vt 0.125000 0.750000
vt 0.875000 0.500000
vt 0.875000 0.750000
vt 0.375000 0.000000
vt 0.625000 0.000000
vt 0.625000 0.250000
vt 0.375000 0.250000
vt 0.625000 0.500000
vt 0.375000 0.500000
vt 0.625000 0.750000
vt 0.375000 0.750000
vt 0.625000 1.000000
vt 0.375000 1.000000
vt 0.125000 0.500000
vt 0.125000 0.750000
vt 0.875000 0.500000
vt 0.875000 0.750000
vt 0.375000 0.000000
vt 0.625000 0.000000
vt 0.625000 0.250000
vt 0.375000 0.250000
vt 0.625000 0.500000
vt 0.375000 0.500000
vt 0.625000 0.750000
vt 0.375000 0.750000
vt 0.625000 1.000000
vt 0.375000 1.000000
vt 0.125000 0.500000
vt 0.125000 0.750000
vt 0.875000 0.500000
vt 0.875000 0.750000
vt 0.000000 0.000000
vt 1.000000 0.000000
vt 1.000000 1.000000
vt 0.000000 1.000000
vt 0.000000 0.000000
vt 1.000000 0.000000
vt 0.000000 0.000000
vt 1.000000 0.000000
vt 0.000000 0.000000
vt 1.000000 0.000000
vt 0.000000 0.000000
vt 1.000000 0.000000
vt 1.000000 1.000000
vt 0.000000 1.000000
vt 1.000000 1.000000
vt 0.000000 1.000000
vt 1.000000 1.000000
vt 0.000000 1.000000
vt 1.000000 1.000000
vt 0.000000 1.000000
vt 1.000000 1.000000
vt 0.000000 1.000000
vt 1.000000 1.000000
vt 0.000000 1.000000
vt 1.000000 1.000000
vt 0.000000 1.000000
vt 1.000000 0.000000
vt 1.000000 0.000000
vt 1.000000 0.000000
vt 1.000000 0.000000
vt 1.000000 0.000000
vt 1.000000 0.000000
vt 0.000000 0.000000
vt 1.000000 0.000000
vt 1.000000 0.235264
vt 1.000000 1.000000
vt 0.000000 1.000000
vt 0.000000 0.000000
vt 0.000000 1.000000
vt 1.000000 1.000000
vt 1.000000 0.576591
vt 1.000000 0.377976
vt 1.000000 0.235691
vt 1.000000 0.000000
vt 1.000000 0.716930
vt 1.000000 1.000000
vt 1.000000 0.447741
vt 1.000000 0.206093
vt 1.000000 0.000000
vt 0.000000 0.000000
vt 1.000000 0.000000
vt 1.000000 1.000000
vt 0.000000 1.000000
vt 0.000000 0.000000
vt 0.000000 1.000000
vt 1.000000 1.000000
vt 1.000000 0.750974
vt 1.000000 0.583859
vt 1.000000 0.430573
vt 1.000000 0.000000
vt 1.000000 0.762871
vt 1.000000 1.000000
vt 1.000000 0.536054
vt 1.000000 0.349880
vt 1.000000 0.000000
vt 1.000000 1.000000
vt 1.000000 0.576591
vt 1.000000 0.716930
vt 1.000000 1.000000
vt 1.000000 0.377976
vt 1.000000 0.447741
vt 1.000000 0.235691
vt 1.000000 0.206093
vt 1.000000 0.000000
vt 1.000000 0.000000
vt 1.000000 1.000000
vt 1.000000 0.750974
vt 1.000000 0.762871
vt 1.000000 1.000000
vt 1.000000 0.536054
vt 1.000000 0.583859
vt 1.000000 0.430573
vt 1.000000 0.349880
vt 1.000000 0.000000
vt 1.000000 0.000000
vt 1.000000 0.000000
vt 1.000000 0.000000
vt 1.000000 0.000000
vt 1.000000 0.000000
vt 1.000000 0.000000
vt 1.000000 0.000000
vt 1.000000 0.000000
vt 1.000000 0.000000
vt 1.000000 0.000000
vt 1.000000 0.000000
vt 1.000000 0.000000
vt 1.000000 0.000000
vt 1.000000 0.000000
vt 1.000000 0.000000
vt 1.000000 0.000000
vt 1.000000 0.000000
vt 1.000000 0.000000
vt 1.000000 0.000000
vt 1.000000 0.000000
vt 1.000000 0.000000
vt 0.375000 0.000000
vt 0.625000 0.000000
vt 0.625000 0.250000
vt 0.375000 0.250000
vt 0.625000 0.500000
vt 0.375000 0.500000
vt 0.625000 0.750000
vt 0.375000 0.750000
vt 0.625000 1.000000
vt 0.375000 1.000000
vt 0.125000 0.500000
vt 0.125000 0.750000
vt 0.875000 0.500000
vt 0.875000 0.750000
vt 1.000000 0.500000
vt 1.000000 1.000000
vt 0.857143 1.000000
vt 0.857143 0.500000
vt 0.714286 1.000000
vt 0.714286 0.500000
vt 0.571429 1.000000
vt 0.571429 0.500000
vt 0.428571 1.000000
vt 0.428571 0.500000
vt 0.285714 1.000000
vt 0.285714 0.500000
vt 0.437640 0.399638
vt 0.250000 0.490000
vt 0.062360 0.399638
vt 0.016017 0.196595
vt 0.145868 0.033767
vt 0.354132 0.033767
vt 0.483983 0.196595
vt 0.142857 1.000000
vt 0.142857 0.500000
vt 0.000000 1.000000
vt 0.000000 0.500000
vt 0.750000 0.490000
vt 0.937640 0.399638
vt 0.983983 0.196595
vt 0.854132 0.033767
vt 0.645868 0.033767
vt 0.516017 0.196595
vt 0.562360 0.399638
vt 1.000000 0.500000
vt 1.000000 1.000000
vt 0.857143 1.000000
vt 0.857143 0.500000
vt 0.714286 1.000000
vt 0.714286 0.500000
vt 0.571429 1.000000
vt 0.571429 0.500000
vt 0.428571 1.000000
vt 0.428571 0.500000
vt 0.285714 1.000000
vt 0.285714 0.500000
vt 0.437640 0.399638
vt 0.250000 0.490000
vt 0.062360 0.399638
vt 0.016017 0.196595
vt 0.145868 0.033767
vt 0.354132 0.033767
vt 0.483983 0.196595
vt 0.142857 1.000000
vt 0.142857 0.500000
vt 0.000000 1.000000
vt 0.000000 0.500000
vt 0.750000 0.490000
vt 0.937640 0.399638
vt 0.983983 0.196595
vt 0.854132 0.033767
vt 0.645868 0.033767
vt 0.516017 0.196595
vt 0.562360 0.399638
vt 1.000000 0.500000
vt 1.000000 1.000000
vt 0.857143 1.000000
vt 0.857143 0.500000
vt 0.714286 1.000000
vt 0.714286 0.500000
vt 0.571429 1.000000
vt 0.571429 0.500000
vt 0.428571 1.000000
vt 0.428571 0.500000
vt 0.285714 1.000000
vt 0.285714 0.500000
vt 0.437640 0.399638
vt 0.250000 0.490000
vt 0.062360 0.399638
vt 0.016017 0.196595
vt 0.145868 0.033767
vt 0.354132 0.033767
vt 0.483983 0.196595
vt 0.142857 1.000000
vt 0.142857 0.500000
vt 0.000000 1.000000
vt 0.000000 0.500000
vt 0.750000 0.490000
vt 0.937640 0.399638
vt 0.983983 0.196595
vt 0.854132 0.033767
vt 0.645868 0.033767
vt 0.516017 0.196595
vt 0.562360 0.399638
vt 1.000000 0.500000
vt 1.000000 1.000000
vt 0.857143 1.000000
vt 0.857143 0.500000
vt 0.714286 1.000000
vt 0.714286 0.500000
vt 0.571429 1.000000
vt 0.571429 0.500000
vt 0.428571 1.000000
vt 0.428571 0.500000
vt 0.285714 1.000000
vt 0.285714 0.500000
vt 0.437640 0.399638
vt 0.250000 0.490000
vt 0.062360 0.399638
vt 0.016017 0.196595
vt 0.145868 0.033767
vt 0.354132 0.033767
vt 0.483983 0.196595
vt 0.142857 1.000000
vt 0.142857 0.500000
vt 0.000000 1.000000
vt 0.000000 0.500000
vt 0.750000 0.490000
vt 0.937640 0.399638
vt 0.983983 0.196595
vt 0.854132 0.033767
vt 0.645868 0.033767
vt 0.516017 0.196595
vt 0.562360 0.399638
vt 1.000000 0.500000
vt 1.000000 1.000000
vt 0.857143 1.000000
vt 0.857143 0.500000
vt 0.714286 1.000000
vt 0.714286 0.500000
vt 0.571429 1.000000
vt 0.571429 0.500000
vt 0.428571 1.000000
vt 0.428571 0.500000
vt 0.285714 1.000000
vt 0.285714 0.500000
vt 0.437640 0.399638
vt 0.250000 0.490000
vt 0.062360 0.399638
vt 0.016017 0.196595
vt 0.145868 0.033767
vt 0.354132 0.033767
vt 0.483983 0.196595
vt 0.142857 1.000000
vt 0.142857 0.500000
vt 0.000000 1.000000
vt 0.000000 0.500000
vt 0.750000 0.490000
vt 0.937640 0.399638
vt 0.983983 0.196595
vt 0.854132 0.033767
vt 0.645868 0.033767
vt 0.516017 0.196595
vt 0.562360 0.399638
vt 1.000000 0.500000
vt 1.000000 1.000000
vt 0.857143 1.000000
vt 0.857143 0.500000
vt 0.714286 1.000000
vt 0.714286 0.500000
vt 0.571429 1.000000
vt 0.571429 0.500000
vt 0.428571 1.000000
vt 0.428571 0.500000
vt 0.285714 1.000000
vt 0.285714 0.500000
vt 0.437640 0.399638
vt 0.250000 0.490000
vt 0.062360 0.399638
vt 0.016017 0.196595
vt 0.145868 0.033767
vt 0.354132 0.033767
vt 0.483983 0.196595
vt 0.142857 1.000000
vt 0.142857 0.500000
vt 0.000000 1.000000
vt 0.000000 0.500000
vt 0.750000 0.490000
vt 0.937640 0.399638
vt 0.983983 0.196595
vt 0.854132 0.033767
vt 0.645868 0.033767
vt 0.516017 0.196595
vt 0.562360 0.399638
vt 1.000000 0.500000
vt 1.000000 1.000000
vt 0.857143 1.000000
vt 0.857143 0.500000
vt 0.714286 1.000000
vt 0.714286 0.500000
vt 0.571429 1.000000
vt 0.571429 0.500000
vt 0.428571 1.000000
vt 0.428571 0.500000
vt 0.285714 1.000000
vt 0.285714 0.500000
vt 0.437640 0.399638
vt 0.250000 0.490000
vt 0.062360 0.399638
vt 0.016017 0.196595
vt 0.145868 0.033767
vt 0.354132 0.033767
vt 0.483983 0.196595
vt 0.142857 1.000000
vt 0.142857 0.500000
vt 0.000000 1.000000
vt 0.000000 0.500000
vt 0.750000 0.490000
vt 0.937640 0.399638
vt 0.983983 0.196595
vt 0.854132 0.033767
vt 0.645868 0.033767
vt 0.516017 0.196595
vt 0.562360 0.399638
vn -1.0000 0.0000 0.0000
vn 0.0000 0.0000 -1.0000
vn 1.0000 0.0000 0.0000
vn 0.0000 0.0000 1.0000
vn 0.0000 -1.0000 0.0000
vn 0.0000 1.0000 0.0000
vn 0.0000 0.2169 0.9762
vn 0.0000 0.6167 0.7872
vn 0.0000 0.7071 0.7071
vn 0.0000 0.7872 0.6167
vn 0.0000 0.1789 -0.9839
vn 0.0000 0.5812 -0.8137
vn 0.0000 0.6757 -0.7372
vn 0.0000 0.7956 -0.6059
vn 0.7664 -0.4127 -0.4922
vn 0.9620 -0.1873 -0.1987
vn -0.0000 0.5755 0.8178
vn -0.0000 -0.5755 -0.8178
vn 0.0000 -0.8178 0.5755
vn 0.0000 0.8178 -0.5755
vn 0.0000 0.5755 -0.8178
vn -0.0000 -0.5755 0.8178
vn 0.0000 0.8178 0.5755
vn 0.0000 -0.8178 -0.5755
vn 0.9734 0.1690 -0.1546
vn 0.9407 0.2012 -0.2731
vn 0.9325 -0.2348 0.2744
vn 0.7374 -0.4240 0.5258
vn 0.4429 0.0000 -0.8966
vn 0.9761 0.0000 -0.2172
vn 0.7895 0.0000 0.6138
vn -0.7895 0.0000 0.6138
vn -0.9761 0.0000 -0.2172
vn -0.4429 0.0000 -0.8966
vn 0.9010 0.3543 0.2506
vn 0.2273 0.7740 0.5910
vn -0.6055 0.6230 0.4953
vn -0.9998 -0.0038 0.0220
vn -0.6218 -0.6277 -0.4683
vn -0.0198 0.6104 -0.7919
vn 0.2070 -0.7723 -0.6005
vn 0.8918 -0.3474 -0.2900
vn 0.0198 -0.6104 0.7919
vn 0.0000 -0.4429 -0.8966
vn 0.0000 -0.9761 -0.2172
vn 0.0000 -0.7895 0.6138
vn -0.0000 0.7895 0.6138
vn -0.0000 0.9761 -0.2172
vn -0.0000 0.4429 -0.8966
vn 0.9011 -0.3473 0.2595
vn 0.2273 -0.7723 0.5931
vn -0.6056 -0.6277 0.4892
vn -0.9999 -0.0039 0.0120
vn -0.6219 0.6230 -0.4744
vn 0.0071 0.6104 0.7921
vn 0.2071 0.7740 -0.5983
vn 0.8919 0.3543 -0.2810
vn -0.0071 -0.6104 -0.7921
vn 0.8918 -0.3473 -0.2900
vn -0.6219 0.6230 -0.4745
usemtl Material.005
s off
f 1/1/1 2/2/1 4/3/1 3/4/1
f 3/4/2 4/3/2 8/5/2 7/6/2
f 7/6/3 8/5/3 6/7/3 5/8/3
f 5/8/4 6/7/4 2/9/4 1/10/4
f 3/11/5 7/6/5 5/8/5 1/12/5
f 8/5/6 4/13/6 2/14/6 6/7/6
f 206/15/1 207/16/1 209/17/1 208/18/1
f 208/18/2 209/17/2 213/19/2 212/20/2
f 212/20/3 213/19/3 211/21/3 210/22/3
f 210/22/4 211/21/4 207/23/4 206/24/4
f 208/25/5 212/20/5 210/22/5 206/26/5
f 213/19/6 209/27/6 207/28/6 211/21/6
f 214/29/1 215/30/1 217/31/1 216/32/1
f 216/32/2 217/31/2 221/33/2 220/34/2
f 220/34/3 221/33/3 219/35/3 218/36/3
f 218/36/4 219/35/4 215/37/4 214/38/4
f 216/39/5 220/34/5 218/36/5 214/40/5
f 221/33/6 217/41/6 215/42/6 219/35/6
f 222/43/1 223/44/1 225/45/1 224/46/1
f 224/46/2 225/45/2 229/47/2 228/48/2
f 228/48/3 229/47/3 227/49/3 226/50/3
f 226/50/4 227/49/4 223/51/4 222/52/4
f 224/53/5 228/48/5 226/50/5 222/54/5
f 229/47/6 225/55/6 223/56/6 227/49/6
usemtl Material.001
f 9/57/6 10/58/6 12/59/6 11/60/6
f 10/58/7 9/57/7 17/61/7 18/62/7
f 18/62/8 17/61/8 19/63/8 20/64/8
f 20/64/9 19/63/9 21/65/9 22/66/9
f 22/66/10 21/65/10 23/67/10 24/68/10
f 11/60/11 12/59/11 26/69/11 25/70/11
f 25/70/12 26/69/12 28/71/12 27/72/12
f 27/72/4 28/71/4 30/73/4 29/74/4
f 29/74/4 30/73/4 32/75/4 31/76/4
f 31/76/13 32/75/13 34/77/13 33/78/13
f 33/78/14 34/77/14 36/79/14 35/80/14
f 35/80/4 36/79/4 38/81/4 37/82/4
f 20/64/15 22/66/15 40/83/15 39/84/15
f 22/66/4 24/68/4 44/85/4 43/86/4
f 43/86/16 44/85/16 46/87/16 45/88/16
f 111/89/17 112/90/17 126/91/17 114/92/17 113/93/17
f 115/94/18 117/95/18 118/96/18 121/97/18 123/98/18 125/99/18 116/100/18
f 111/89/1 113/93/1 117/95/1 115/94/1
f 112/90/19 111/89/19 115/94/19 116/100/19
f 114/92/3 126/91/3 125/99/3 123/98/3 121/97/3 118/96/3
f 113/93/20 114/92/20 118/96/20 117/95/20
f 118/96/3 121/97/3 122/101/3 120/102/3
f 122/101/3 121/97/3 123/98/3 124/103/3
f 124/103/3 123/98/3 125/99/3 127/104/3
f 125/99/3 126/91/3 112/90/3 116/100/3
f 127/104/3 125/99/3 116/100/3 119/105/3
f 128/106/21 129/107/21 131/108/21 130/109/21
f 132/110/22 134/111/22 135/112/22 143/113/22 139/114/22 141/115/22 133/116/22
f 128/106/1 130/109/1 134/111/1 132/110/1
f 129/107/23 128/106/23 132/110/23 133/116/23
f 131/108/3 129/107/3 133/116/3 141/115/3 139/114/3 143/113/3 135/112/3
f 130/109/24 131/108/24 135/112/24 134/111/24
f 135/112/3 143/113/3 142/117/3 137/118/3
f 138/119/3 139/114/3 141/115/3 140/120/3
f 140/120/3 141/115/3 133/116/3 136/121/3
f 142/117/3 143/113/3 139/114/3 138/119/3
f 187/122/3 190/123/3 191/124/3 189/125/3
f 191/124/3 190/123/3 192/126/3 193/127/3
f 193/127/3 192/126/3 194/128/3 195/129/3
f 195/129/3 194/128/3 186/130/3 188/131/3
f 197/132/3 205/133/3 204/134/3 199/135/3
f 200/136/3 201/137/3 203/138/3 202/139/3
f 202/139/3 203/138/3 196/140/3 198/141/3
f 204/134/3 205/133/3 201/137/3 200/136/3
f 230/142/15 231/143/15 233/144/15 232/145/15
f 234/146/16 235/147/16 237/148/16 236/149/16
f 242/150/25 239/151/25 241/152/25 243/153/25
f 238/154/26 242/150/26 243/153/26 240/155/26
f 248/156/27 245/157/27 247/158/27 249/159/27
f 244/160/28 248/156/28 249/159/28 246/161/28
usemtl Material.002
f 47/162/1 48/163/1 50/164/1 49/165/1
f 49/165/2 50/164/2 54/166/2 53/167/2
f 53/167/3 54/166/3 52/168/3 51/169/3
f 51/169/4 52/168/4 48/170/4 47/171/4
f 49/172/5 53/167/5 51/169/5 47/173/5
f 54/166/6 50/174/6 48/175/6 52/168/6
f 55/176/29 56/177/29 58/178/29 57/179/29
f 57/179/30 58/178/30 60/180/30 59/181/30
f 59/181/31 60/180/31 62/182/31 61/183/31
f 61/183/4 62/182/4 64/184/4 63/185/4
f 63/185/32 64/184/32 66/186/32 65/187/32
f 58/188/6 56/189/6 68/190/6 66/191/6 64/192/6 62/193/6 60/194/6
f 65/187/33 66/186/33 68/195/33 67/196/33
f 67/196/34 68/195/34 56/197/34 55/198/34
f 55/199/5 57/200/5 59/201/5 61/202/5 63/203/5 65/204/5 67/205/5
f 69/206/29 70/207/29 72/208/29 71/209/29
f 71/209/30 72/208/30 74/210/30 73/211/30
f 73/211/31 74/210/31 76/212/31 75/213/31
f 75/213/4 76/212/4 78/214/4 77/215/4
f 77/215/32 78/214/32 80/216/32 79/217/32
f 72/218/6 70/219/6 82/220/6 80/221/6 78/222/6 76/223/6 74/224/6
f 79/217/33 80/216/33 82/225/33 81/226/33
f 81/226/34 82/225/34 70/227/34 69/228/34
f 69/229/5 71/230/5 73/231/5 75/232/5 77/233/5 79/234/5 81/235/5
f 83/236/35 84/237/35 86/238/35 85/239/35
f 85/239/36 86/238/36 88/240/36 87/241/36
f 87/241/37 88/240/37 90/242/37 89/243/37
f 89/243/38 90/242/38 92/244/38 91/245/38
f 91/245/39 92/244/39 94/246/39 93/247/39
f 86/248/40 84/249/40 96/250/40 94/251/40 92/252/40 90/253/40 88/254/40
f 93/247/41 94/246/41 96/255/41 95/256/41
f 95/256/42 96/255/42 84/257/42 83/258/42
f 83/259/43 85/260/43 87/261/43 89/262/43 91/263/43 93/264/43 95/265/43
f 97/266/44 98/267/44 100/268/44 99/269/44
f 99/269/45 100/268/45 102/270/45 101/271/45
f 101/271/46 102/270/46 104/272/46 103/273/46
f 103/273/4 104/272/4 106/274/4 105/275/4
f 105/275/47 106/274/47 108/276/47 107/277/47
f 100/278/3 98/279/3 110/280/3 108/281/3 106/282/3 104/283/3 102/284/3
f 107/277/48 108/276/48 110/285/48 109/286/48
f 109/286/49 110/285/49 98/287/49 97/288/49
f 97/289/1 99/290/1 101/291/1 103/292/1 105/293/1 107/294/1 109/295/1
f 144/296/50 145/297/50 147/298/50 146/299/50
f 146/299/51 147/298/51 149/300/51 148/301/51
f 148/301/52 149/300/52 151/302/52 150/303/52
f 150/303/53 151/302/53 153/304/53 152/305/53
f 152/305/54 153/304/54 155/306/54 154/307/54
f 147/308/55 145/309/55 157/310/55 155/311/55 153/312/55 151/313/55 149/314/55
f 154/307/56 155/306/56 157/315/56 156/316/56
f 156/316/57 157/315/57 145/317/57 144/318/57
f 144/319/58 146/320/58 148/321/58 150/322/58 152/323/58 154/324/58 156/325/58
f 158/326/35 159/327/35 161/328/35 160/329/35
f 160/329/36 161/328/36 163/330/36 162/331/36
f 162/331/37 163/330/37 165/332/37 164/333/37
f 164/333/38 165/332/38 167/334/38 166/335/38
f 166/335/39 167/334/39 169/336/39 168/337/39
f 161/338/40 159/339/40 171/340/40 169/341/40 167/342/40 165/343/40 163/344/40
f 168/337/41 169/336/41 171/345/41 170/346/41
f 170/346/59 171/345/59 159/347/59 158/348/59
f 158/349/43 160/350/43 162/351/43 164/352/43 166/353/43 168/354/43 170/355/43
f 172/356/50 173/357/50 175/358/50 174/359/50
f 174/359/51 175/358/51 177/360/51 176/361/51
f 176/361/52 177/360/52 179/362/52 178/363/52
f 178/363/53 179/362/53 181/364/53 180/365/53
f 180/365/60 181/364/60 183/366/60 182/367/60
f 175/368/55 173/369/55 185/370/55 183/371/55 181/372/55 179/373/55 177/374/55
f 182/367/56 183/366/56 185/375/56 184/376/56
f 184/376/57 185/375/57 173/377/57 172/378/57
f 172/379/58 174/380/58 176/381/58 178/382/58 180/383/58 182/384/58 184/385/58
l 15 13
l 14 16
l 22 41
l 24 42
